<?xml version="1.0" encoding="UTF-8"?>
<svg xmlns="http://www.w3.org/2000/svg" viewBox="0 0 2200 1100" width="2200" height="1100">
<defs>
  <linearGradient id="sky" x1="0" y1="0" x2="0" y2="1"><stop stop-color="#bfe5ee"/><stop offset=".58" stop-color="#dcefeb"/><stop offset="1" stop-color="#a8c9b5"/></linearGradient>
  <linearGradient id="mountain" x1="0" y1="0" x2="1" y2="1"><stop stop-color="#557c76"/><stop offset=".5" stop-color="#2e514b"/><stop offset="1" stop-color="#173934"/></linearGradient>
  <linearGradient id="snow" x1="0" y1="0" x2="1" y2="1"><stop stop-color="#f7fbf8"/><stop offset="1" stop-color="#bcd7d1"/></linearGradient>
  <linearGradient id="valley" x1="0" y1="0" x2="0" y2="1"><stop stop-color="#6c9b82"/><stop offset="1" stop-color="#244c3c"/></linearGradient>
  <filter id="blur"><feGaussianBlur stdDeviation="22"/></filter>
  <filter id="soft"><feGaussianBlur stdDeviation="6"/></filter>
</defs>
<rect width="2200" height="1100" fill="url(#sky)"/>
<circle cx="1750" cy="210" r="150" fill="#fff" opacity=".38" filter="url(#blur)"/>
<path d="M0 760 L360 450 620 690 1010 240 1330 610 1690 320 2200 760 V1100 H0Z" fill="url(#mountain)"/>
<path d="M690 590 L1010 240 1135 410 1065 390 1015 480 950 430 900 520 830 500Z" fill="url(#snow)" opacity=".95"/>
<path d="M1470 540 L1690 320 1830 505 1765 475 1715 535 1665 495 1610 575Z" fill="url(#snow)" opacity=".82"/>
<path d="M0 820 Q500 650 930 820 T1600 780 T2200 820 V1100 H0Z" fill="url(#valley)"/>
<path d="M0 930 Q450 790 880 910 T1580 900 T2200 930 V1100 H0Z" fill="#193e32" opacity=".7"/>
<g opacity=".42" filter="url(#soft)" fill="#eef8ef">
  <ellipse cx="450" cy="820" rx="180" ry="35"/><ellipse cx="1150" cy="760" rx="240" ry="42"/><ellipse cx="1840" cy="830" rx="220" ry="38"/>
</g>
<g fill="#102f29" opacity=".82">
  <path d="M90 930 l35-120 35 120z"/><path d="M150 950 l48-170 48 170z"/><path d="M2020 950 l42-150 42 150z"/><path d="M2080 955 l55-190 55 190z"/>
</g>
<rect width="2200" height="1100" fill="#ffffff" opacity=".06"/>
</svg>